<?xml version="1.0" encoding="UTF-8" standalone="no"?>
<!-- Created with Inkscape (http://www.inkscape.org/) -->

<svg
   width="5.8208332mm"
   height="4.7624998mm"
   viewBox="0 0 5.8208332 4.7624998"
   version="1.1"
   id="svg1"
   xml:space="preserve"
   sodipodi:docname="placeholder.svg"
   inkscape:version="1.3 (0e150ed6c4, 2023-07-21)"
   xmlns:inkscape="http://www.inkscape.org/namespaces/inkscape"
   xmlns:sodipodi="http://sodipodi.sourceforge.net/DTD/sodipodi-0.dtd"
   xmlns="http://www.w3.org/2000/svg"
   xmlns:svg="http://www.w3.org/2000/svg"><sodipodi:namedview
     id="namedview1"
     pagecolor="#ffffff"
     bordercolor="#000000"
     borderopacity="0.25"
     inkscape:showpageshadow="2"
     inkscape:pageopacity="0.0"
     inkscape:pagecheckerboard="0"
     inkscape:deskcolor="#d1d1d1"
     inkscape:document-units="mm"
     inkscape:zoom="10.727273"
     inkscape:cx="10.95339"
     inkscape:cy="8.9957625"
     inkscape:window-width="1346"
     inkscape:window-height="659"
     inkscape:window-x="8"
     inkscape:window-y="99"
     inkscape:window-maximized="1"
     inkscape:current-layer="layer1" /><defs
     id="defs1" /><g
     inkscape:label="Layer 1"
     inkscape:groupmode="layer"
     id="layer1"
     transform="translate(-112.60237,-151.48677)"><g
       style="fill:#ffffff;stroke:currentColor;stroke-width:2;stroke-linecap:round;stroke-linejoin:round;fill-opacity:1"
       id="g1"
       transform="matrix(0.26458333,0,0,0.26458333,102.09827,145.325)"><path
         id="path1"
         style="fill:#ffffff;fill-opacity:1;stroke:none"
         d="m 47.700521,23.288562 -2,3 h -4 a 2,2 0 0 0 -2,2 v 11 a 2,2 0 0 0 2,2 h 18 a 2,2 0 0 0 2,-2 v -11 a 2,2 0 0 0 -2,-2 h -4 l -2.000001,-3 z m 2.999999,6 a 4,4 0 0 1 4.000001,4 4,4 0 0 1 -4.000001,4 4,4 0 0 1 -3.999999,-4 4,4 0 0 1 3.999999,-4 z" /></g></g></svg>
